<svg xmlns="http://www.w3.org/2000/svg" width="18" height="18" viewBox="0 0 18 18">
  <g id="calendar" opacity="0.6">
    <g id="Group_2291" data-name="Group 2291">
      <g id="Group_2290" data-name="Group 2290">
        <path id="Path_10237" data-name="Path 10237" d="M15.891,1.406h-.844V0H13.641V1.406H4.359V0H2.953V1.406H2.109A2.112,2.112,0,0,0,0,3.516V15.891A2.112,2.112,0,0,0,2.109,18H15.891A2.112,2.112,0,0,0,18,15.891V3.516A2.112,2.112,0,0,0,15.891,1.406Zm.7,14.484a.7.7,0,0,1-.7.7H2.109a.7.7,0,0,1-.7-.7V6.609H16.594Zm0-10.687H1.406V3.516a.7.7,0,0,1,.7-.7h.844V4.219H4.359V2.813h9.281V4.219h1.406V2.813h.844a.7.7,0,0,1,.7.7Z" fill="#e67925"/>
      </g>
    </g>
    <g id="Group_2293" data-name="Group 2293" transform="translate(2.571 8.143)">
      <g id="Group_2292" data-name="Group 2292" transform="translate(0 0)">
        <rect id="Rectangle_17327" data-name="Rectangle 17327" width="1" height="1" transform="translate(0.429 -0.143)" fill="#e67925"/>
      </g>
    </g>
    <g id="Group_2295" data-name="Group 2295" transform="translate(5.571 8.143)">
      <g id="Group_2294" data-name="Group 2294" transform="translate(0 0)">
        <rect id="Rectangle_17328" data-name="Rectangle 17328" width="1" height="1" transform="translate(0.429 -0.143)" fill="#e67925"/>
      </g>
    </g>
    <g id="Group_2297" data-name="Group 2297" transform="translate(8.143 8.143)">
      <g id="Group_2296" data-name="Group 2296" transform="translate(0 0)">
        <rect id="Rectangle_17329" data-name="Rectangle 17329" width="2" height="1" transform="translate(-0.143 -0.143)" fill="#e67925"/>
      </g>
    </g>
    <g id="Group_2299" data-name="Group 2299" transform="translate(11.143 8.143)">
      <g id="Group_2298" data-name="Group 2298" transform="translate(0 0)">
        <rect id="Rectangle_17330" data-name="Rectangle 17330" width="1" height="1" transform="translate(-0.143 -0.143)" fill="#e67925"/>
      </g>
    </g>
    <g id="Group_2301" data-name="Group 2301" transform="translate(13.714 8.143)">
      <g id="Group_2300" data-name="Group 2300" transform="translate(0 0)">
        <rect id="Rectangle_17331" data-name="Rectangle 17331" width="1" height="1" transform="translate(0.286 -0.143)" fill="#e67925"/>
      </g>
    </g>
    <g id="Group_2303" data-name="Group 2303" transform="translate(2.571 10.714)">
      <g id="Group_2302" data-name="Group 2302" transform="translate(0 0)">
        <rect id="Rectangle_17332" data-name="Rectangle 17332" width="1" height="1" transform="translate(0.429 0.286)" fill="#e67925"/>
      </g>
    </g>
    <g id="Group_2305" data-name="Group 2305" transform="translate(5.571 10.714)">
      <g id="Group_2304" data-name="Group 2304" transform="translate(0 0)">
        <rect id="Rectangle_17333" data-name="Rectangle 17333" width="1" height="1" transform="translate(0.429 0.286)" fill="#e67925"/>
      </g>
    </g>
    <g id="Group_2307" data-name="Group 2307" transform="translate(8.143 10.714)">
      <g id="Group_2306" data-name="Group 2306" transform="translate(0 0)">
        <rect id="Rectangle_17334" data-name="Rectangle 17334" width="2" height="1" transform="translate(-0.143 0.286)" fill="#e67925"/>
      </g>
    </g>
    <g id="Group_2309" data-name="Group 2309" transform="translate(11.143 10.714)">
      <g id="Group_2308" data-name="Group 2308" transform="translate(0 0)">
        <rect id="Rectangle_17335" data-name="Rectangle 17335" width="1" height="1" transform="translate(-0.143 0.286)" fill="#e67925"/>
      </g>
    </g>
    <g id="Group_2311" data-name="Group 2311" transform="translate(2.571 13.714)">
      <g id="Group_2310" data-name="Group 2310" transform="translate(0 0)">
        <rect id="Rectangle_17336" data-name="Rectangle 17336" width="1" height="1" transform="translate(0.429 0.286)" fill="#e67925"/>
      </g>
    </g>
    <g id="Group_2313" data-name="Group 2313" transform="translate(5.571 13.714)">
      <g id="Group_2312" data-name="Group 2312" transform="translate(0 0)">
        <rect id="Rectangle_17337" data-name="Rectangle 17337" width="1" height="1" transform="translate(0.429 0.286)" fill="#e67925"/>
      </g>
    </g>
    <g id="Group_2315" data-name="Group 2315" transform="translate(8.143 13.714)">
      <g id="Group_2314" data-name="Group 2314" transform="translate(0 0)">
        <rect id="Rectangle_17338" data-name="Rectangle 17338" width="2" height="1" transform="translate(-0.143 0.286)" fill="#e67925"/>
      </g>
    </g>
    <g id="Group_2317" data-name="Group 2317" transform="translate(11.143 13.714)">
      <g id="Group_2316" data-name="Group 2316" transform="translate(0 0)">
        <rect id="Rectangle_17339" data-name="Rectangle 17339" width="1" height="1" transform="translate(-0.143 0.286)" fill="#e67925"/>
      </g>
    </g>
    <g id="Group_2319" data-name="Group 2319" transform="translate(13.714 10.714)">
      <g id="Group_2318" data-name="Group 2318" transform="translate(0 0)">
        <rect id="Rectangle_17340" data-name="Rectangle 17340" width="1" height="1" transform="translate(0.286 0.286)" fill="#e67925"/>
      </g>
    </g>
  </g>
</svg>
