<svg xmlns="http://www.w3.org/2000/svg" width="18.446" height="14.975" viewBox="0 0 18.446 14.975">
  <g id="appareil-photo-pour-prendre-des-photos" transform="translate(0 -3.522)" opacity="0.55">
    <path id="Path_10154" data-name="Path 10154" d="M16.228,6.013H13.561V5.739a2.218,2.218,0,0,0-2.217-2.217H7.1A2.218,2.218,0,0,0,4.885,5.739v.274H2.217A2.218,2.218,0,0,0,0,8.231V16.28A2.218,2.218,0,0,0,2.217,18.5H16.229a2.218,2.218,0,0,0,2.217-2.217V8.231A2.219,2.219,0,0,0,16.228,6.013ZM9.222,16.2a4.189,4.189,0,1,1,4.189-4.189A4.193,4.193,0,0,1,9.222,16.2Zm2.217-4.189A2.217,2.217,0,1,1,9.222,9.791,2.221,2.221,0,0,1,11.44,12.009Z" fill="#e67925"/>
  </g>
</svg>
