<svg xmlns="http://www.w3.org/2000/svg" width="30.485" height="28.976" viewBox="0 0 30.485 28.976"><g transform="translate(0 0)"><path d="M29.973,25.549,16.3,13.086a1.556,1.556,0,0,0-2.106,0L.512,25.549a1.563,1.563,0,0,0,1.053,2.719H3.749V40.755a.9.9,0,0,0,.9.9h7.5a.9.9,0,0,0,.9-.9V33.173h4.406v7.582a.9.9,0,0,0,.9.9h7.5a.9.9,0,0,0,.9-.9V28.268h2.185a1.563,1.563,0,0,0,1.053-2.719Z" transform="translate(0 -12.675)" fill="#e67925"/></g><g transform="translate(20.481 1.789)"><path d="M349.994,42.73h-6.021l6.917,6.29V43.626A.9.9,0,0,0,349.994,42.73Z" transform="translate(-343.973 -42.73)" fill="#e67925"/></g></svg>