<svg id="Layer_1" data-name="Layer 1" xmlns="http://www.w3.org/2000/svg" viewBox="0 0 541 541"><defs><style>.cls-1{fill:#fff;}.cls-2{fill:#e67965;}</style></defs><circle class="cls-1" cx="270.5" cy="270.5" r="270.5"/><g id="Logo"><path id="hand" class="cls-2" d="M175.71,220.51S174.07,333,153.49,380.34a116.8,116.8,0,0,0-10,47.54c.24,27.68,6.65,47.56,6.65,47.56s29.49,82.57,103.54,95,109.45-24.9,109.45-24.9l104.4-104.41a33.53,33.53,0,0,0,9.71-19.43c.9-7.2-.39-16.09-7.88-25-12.45-14.76-27.64-14.26-35-12.9a1.63,1.63,0,0,1-1.62-2.53c5.44-7.9,15.84-27.17,2.3-44S405,322.11,398,323.72a1.18,1.18,0,0,1-1.23-1.82c4.53-6.53,13.71-23.72,2.43-43.72-10.38-18.41-27.23-16.76-35.84-14.4a1.41,1.41,0,0,1-1.39-2.33l61.39-64.81A31.42,31.42,0,0,0,431,166.73c0-.19-.11-.38-.16-.58a30.3,30.3,0,0,0-24.75-21.58,69.61,69.61,0,0,0-14.37-.37,28.83,28.83,0,0,0-18.34,8.43L260.9,265.07s-10.48,7.21-11.8-.65C248,258,247,231.3,246.61,221.5a29.69,29.69,0,0,0-2.17-10.23c-3.51-8.5-12.58-22.38-34.66-24.19C177.67,184.46,175.71,220.51,175.71,220.51Z" transform="translate(-40 -88)"/><g id="wheel"><path class="cls-1" d="M219.56,358c3.2-14.65,95.59-38.17,141.56,11.8,45.22,49.15,18.76,130.76,3.93,133.69-9.64,1.9-33.38-25.64-33.42-47.19-.05-23.29,2.93-34.84-15.08-48.49-13.24-10-5.9-14.42-49.8-16.39C245.08,390.46,217.56,367.15,219.56,358Z" transform="translate(-40 -88)"/><path class="cls-1" d="M221.53,519.23c12.92-8.69,19.7-20.87,41.94-26.22a80.39,80.39,0,0,1,33.42-.65c26.15,5,36.79,21,47.19,26.21.59.3,2.62,1.29,2.62,2.62s-2,2.29-2.62,2.62c-10.64,5.38-6,6.28-22.29,12.45-8.5,3.23-13.61,5.16-21,6.56-15,2.84-26.69,1.06-37.35-.66,0,0-20.4-3.28-41.94-17.69-1.82-1.21-2-2.2-2-2.62C219.56,520.54,221,519.55,221.53,519.23Z" transform="translate(-40 -88)"/><path class="cls-1" d="M198.59,381c.59-1.07,1.73-4.65,3.28-4.59,1.36.06,3.89,5,4.58,5.9,4.59,5.9,9.83,8.52,13.11,13.76,5,7.93,9,14.52,11.8,25.56a79.79,79.79,0,0,1-1.31,42.6c-2.8,9.49-7.79,20.14-13.11,26.21-4,4.53-9.92,8.54-11.8,12.45-.17.36-.81,1.76-2,2-1.3.23-2.58-1.14-3.28-2a69.58,69.58,0,0,1-11.8-20.31c-4.42-13.21-6.63-19.82-7.21-22.94a104.21,104.21,0,0,1,.66-38.67C185.6,400.92,189.41,397.33,198.59,381Z" transform="translate(-40 -88)"/></g></g></svg>