<svg id="Layer_1" data-name="Layer 1" xmlns="http://www.w3.org/2000/svg" viewBox="0 0 509.65 654.63"><defs><style>.cls-1{fill:#e67965;}.cls-2{fill:#fff;}</style></defs><g id="Logo"><path id="hand" class="cls-1" d="M116.32,150.44s-2.49,171.68-33.91,243.88a178.24,178.24,0,0,0-15.23,72.54c.37,42.24,10.14,72.58,10.14,72.58s45,126,158,145,167-38,167-38L561.63,487.12a51.21,51.21,0,0,0,14.81-29.65c1.38-11-.6-24.56-12-38.09-19-22.52-42.17-21.77-53.39-19.69a2.48,2.48,0,0,1-2.48-3.86c8.3-12.05,24.18-41.46,3.52-67.14-20.51-25.5-45.88-23.21-56.59-20.76a1.79,1.79,0,0,1-1.87-2.77c6.91-10,20.92-36.2,3.71-66.72-15.85-28.09-41.55-25.58-54.69-22a2.15,2.15,0,0,1-2.13-3.56L494.19,114a48,48,0,0,0,11.62-45.64c-.08-.29-.16-.58-.25-.88a46.21,46.21,0,0,0-37.77-32.93A106.19,106.19,0,0,0,445.88,34a44.1,44.1,0,0,0-28,12.87L246.32,218.44s-16,11-18-1c-1.63-9.75-3.25-50.54-3.81-65.48a45.25,45.25,0,0,0-3.31-15.62c-5.36-13-19.2-34.15-52.88-36.9C119.32,95.44,116.32,150.44,116.32,150.44Z" transform="translate(-67.17 -33.69)"/><g id="wheel"><path class="cls-2" d="M173.32,356.44c4.88-22.36,145.85-58.25,216,18,69,75,28.63,199.53,6,204-14.7,2.9-50.94-39.13-51-72-.07-35.55,4.48-53.17-23-74-20.21-15.32-9-22-76-25C212.26,406,170.27,370.38,173.32,356.44Z" transform="translate(-67.17 -33.69)"/><path class="cls-2" d="M176.32,602.44c19.71-13.25,30.06-31.85,64-40a122.66,122.66,0,0,1,51-1c39.9,7.69,56.13,32,72,40,.9.45,4,2,4,4s-3,3.48-4,4c-16.24,8.21-9.14,9.58-34,19-13,4.91-20.78,7.87-32,10-22.84,4.33-40.74,1.61-57-1,0,0-31.13-5-64-27-2.77-1.85-3-3.36-3-4C173.32,604.43,175.57,602.94,176.32,602.44Z" transform="translate(-67.17 -33.69)"/><path class="cls-2" d="M141.32,391.44c.9-1.63,2.64-7.1,5-7,2.08.08,5.94,7.63,7,9,7,9,15,13,20,21,7.56,12.09,13.74,22.16,18,39,7.76,30.72.68,55.89-2,65-4.28,14.49-11.89,30.74-20,40-6.07,6.91-15.14,13-18,19-.27.55-1.24,2.68-3,3-2,.35-3.93-1.74-5-3a106,106,0,0,1-18-31c-6.75-20.16-10.12-30.24-11-35a158.92,158.92,0,0,1,1-59C121.49,421.91,127.32,416.44,141.32,391.44Z" transform="translate(-67.17 -33.69)"/></g></g></svg>