<svg xmlns="http://www.w3.org/2000/svg" width="21.885" height="22.026" viewBox="0 0 21.885 22.026"><g transform="translate(5046.159 -481)"><path d="M307.649,3.784H287.916a1.075,1.075,0,0,0-1.075,1.076v.993a1.075,1.075,0,0,0,1.075,1.076h19.733a1.077,1.077,0,0,0,1.077-1.076V4.861a1.077,1.077,0,0,0-1.077-1.076Z" transform="translate(-5333 477.216)" fill="#e67925"/><path d="M307.649,18.726H287.916a1.075,1.075,0,0,0-1.075,1.076V20.8a1.075,1.075,0,0,0,1.075,1.076h19.733a1.077,1.077,0,0,0,1.077-1.076V19.8a1.077,1.077,0,0,0-1.077-1.076Z" transform="translate(-5333 481.155)" fill="#e67925"/><path d="M307.168,14.822a1.078,1.078,0,0,0-1.077-1.076H293.828a1.078,1.078,0,0,0-1.077,1.076v.993a1.076,1.076,0,0,0,1.077,1.076h12.264a1.077,1.077,0,0,0,1.077-1.076Z" transform="translate(-5331.442 479.842)" fill="#e67925"/><path d="M307.168,9.869a1.077,1.077,0,0,0-1.077-1.076H293.828a1.077,1.077,0,0,0-1.077,1.076v.993a1.072,1.072,0,0,0,.082.412,1.076,1.076,0,0,0,.994.664h12.264a1.077,1.077,0,0,0,1.077-1.076Z" transform="translate(-5331.442 478.536)" fill="#e67925"/><path d="M287.02,15.5a.185.185,0,0,0,.07-.014.181.181,0,0,0,.058-.04l3.926-2.267-.005-.008a.178.178,0,0,0,.067-.064.2.2,0,0,0,.025-.089.191.191,0,0,0-.03-.1.177.177,0,0,0-.077-.066v0l-3.91-2.257a.182.182,0,0,0-.091-.048.176.176,0,0,0-.1.01.17.17,0,0,0-.08.064.179.179,0,0,0-.033.1h0v4.6a.159.159,0,0,0,.013.069.179.179,0,0,0,.167.111Z" transform="translate(-5333 478.996)" fill="#e67925"/></g></svg>